<svg xmlns="http://www.w3.org/2000/svg" viewBox="0 0 665.97 468.85" role="img" aria-label="Suzanne Cory High School logo">
    <!-- SVG file created by Carlos Castillo (code@carloscastillo.com.au) -->

    <title>Suzanne Cory High School</title>

    <defs>
        <style>
            .SCHS-logo-a {
                fill: #8a8d09;
            }

            .SCHS-logo-b {
                fill: #b32317;
            }

            .SCHS-logo-c {
                fill: #571c1f;
            }

            .SCHS-logo-d {
                fill: #8b8d09;
            }

            .SCHS-logo-e {
                fill: #566c11;
            }
        </style>
    </defs>

    <path class="SCHS-logo-a" d="M662.81,467.85V456.28H634V410H621.24v57.86Zm-72-28.76c0,9.92-7.1,18-17.35,18s-17.53-8.26-17.53-18.18v-.17c0-9.92,7.11-18,17.36-18s17.52,8.27,17.52,18.19Zm13.32-.16v-.17c0-16.45-12.82-29.76-30.67-29.76s-30.83,13.48-30.83,29.93v.16c0,16.45,12.81,29.76,30.66,29.76s30.84-13.47,30.84-29.92m-89.36.16c0,9.92-7.11,18-17.35,18s-17.52-8.26-17.52-18.18v-.17c0-9.92,7.1-18,17.35-18s17.52,8.27,17.52,18.19Zm13.31-.16v-.17c0-16.45-12.82-29.76-30.66-29.76s-30.83,13.48-30.83,29.93v.16c0,16.45,12.81,29.76,30.66,29.76s30.83-13.47,30.83-29.92m-78.61,28.92V410H436.76v22.9H413.29V410H400.56v57.86h12.73V444.62h23.47v23.23Zm-64.87-9.34-8.11-8.18c-4.54,4.14-8.59,6.78-15.2,6.78-9.92,0-16.78-8.26-16.78-18.18v-.17c0-9.92,7-18,16.78-18,5.78,0,10.33,2.48,14.79,6.54l8.1-9.35c-5.37-5.29-11.9-8.93-22.81-8.93-17.76,0-30.17,13.48-30.17,29.93v.16c0,16.62,12.66,29.76,29.67,29.76,11.16,0,17.77-4,23.73-10.34m-67.7-7.76v-.17c0-10.08-6.61-14.3-18.35-17.35-10-2.57-12.48-3.81-12.48-7.6v-.18c0-2.8,2.56-5,7.45-5s9.91,2.15,15,5.7l6.61-9.59a33.54,33.54,0,0,0-21.49-7.35c-11.82,0-20.25,6.94-20.25,17.44v.16c0,11.49,7.52,14.72,19.17,17.7,9.68,2.47,11.66,4.13,11.66,7.35V452c0,3.4-3.14,5.46-8.35,5.46-6.61,0-12.07-2.72-17.27-7l-7.53,9a36.84,36.84,0,0,0,24.55,9.25c12.48,0,21.24-6.44,21.24-17.93m-92.07,17.1V410H212.12v22.9H188.64V410H175.91v57.86h12.73V444.62h23.48v23.23Zm-67-8.18V434.55H132.76v11h12.82v8.26a20.3,20.3,0,0,1-12,3.47c-10.25,0-17.52-7.76-17.52-18.34v-.17c0-9.83,7.35-18,16.62-18,6.68,0,10.66,2.15,15.12,5.87l8-9.67c-6-5.12-12.31-7.94-22.73-7.94-17.52,0-30.33,13.48-30.33,29.93v.16c0,17.11,12.39,29.76,30.41,29.76a37.46,37.46,0,0,0,24.71-9.18M85.07,410H72.34v57.86H85.07Zm-33,57.86V410H39.37v22.9H15.89V410H3.16v57.86H15.89V444.62H39.37v23.23Z"/>
    <g>
        <path class="SCHS-logo-b" d="M40.89,361.44A18.25,18.25,0,0,1,39.37,369,15.54,15.54,0,0,1,35,374.72a20.5,20.5,0,0,1-6.94,3.63,30.63,30.63,0,0,1-9.14,1.28,32.81,32.81,0,0,1-6.8-.64,35,35,0,0,1-5.38-1.56,24.16,24.16,0,0,1-4-2A25.83,25.83,0,0,1,0,373.57l5.51-9,1.66,1.15a15.74,15.74,0,0,0,2.76,1.52,26.81,26.81,0,0,0,3.85,1.33,18.56,18.56,0,0,0,4.87.6c3.13,0,5.53-.69,7.22-2.07a6.28,6.28,0,0,0,2.52-5,5.34,5.34,0,0,0-1.14-3.44,11,11,0,0,0-3-2.53A40.29,40.29,0,0,0,19.85,354c-1.66-.7-3.37-1.51-5.15-2.43a38.89,38.89,0,0,1-5.24-3,20.14,20.14,0,0,1-4.13-3.76,16.37,16.37,0,0,1-2.76-4.92,19.47,19.47,0,0,1-1-6.57,15.6,15.6,0,0,1,1.56-7.07,16.17,16.17,0,0,1,4.23-5.33,19.14,19.14,0,0,1,6.25-3.4,24.16,24.16,0,0,1,7.72-1.2,36.56,36.56,0,0,1,6.66.55,36.73,36.73,0,0,1,5.1,1.33,22.27,22.27,0,0,1,3.68,1.66c1,.58,1.8,1.12,2.48,1.61L34,330.47c-.55-.36-1.23-.76-2-1.19a18.89,18.89,0,0,0-2.76-1.19,30.65,30.65,0,0,0-3.4-1,16.88,16.88,0,0,0-3.77-.41,10,10,0,0,0-6,1.6,5.5,5.5,0,0,0-2.2,4.74,5.25,5.25,0,0,0,.87,3.08,9.11,9.11,0,0,0,2.39,2.25,25.07,25.07,0,0,0,3.58,1.93c1.38.61,2.86,1.28,4.46,2q3,1.38,5.88,2.94a21.21,21.21,0,0,1,5,3.76,18,18,0,0,1,3.49,5.2A17.58,17.58,0,0,1,40.89,361.44Z"/>
        <path class="SCHS-logo-b" d="M103,353.63q0,12.58-6.25,19.3t-18.83,6.7q-13.33,0-19.71-6.38t-6.39-18.43V317.33h13v36.39q0,7.9,3.08,11.58T78.19,369q6.9,0,9.88-3.85t3-10.57V317.33H103Z"/>
        <path class="SCHS-logo-b" d="M114.67,378.53v-8.45l28-42.18H115.87V317.33h42.54v8.27L130.11,368h29.13v10.57Z"/>
        <path class="SCHS-logo-b" d="M178,378.53h-13l23.34-61.2h12.5l24,61.2H210.6L206.47,367H182Zm19.57-36.48c-.49-1.28-.93-2.55-1.33-3.81s-.75-2.4-1.06-3.45-.61-2.26-.92-3.31h-.18c-.31,1.11-.61,2.24-.92,3.4q-.82,3.14-2.3,7.17l-5.14,14.61h17.09Z"/>
        <path class="SCHS-logo-b" d="M274.82,378.53l-23.79-34q-2.67-3.67-4.23-6.34-.92-1.47-1.65-2.85H245c.06.8.12,1.66.19,2.58s.1,1.68.13,2.66.05,2,.05,2.94v35H233.57v-61.2h13.05L268.67,349q1.38,2,2.52,3.81c.77,1.19,1.46,2.28,2.07,3.26l1.84,3.22h.19c-.07-.92-.13-1.93-.19-3-.06-.91-.11-1.94-.14-3.07s0-2.32,0-3.54V317.33h11.76v61.2Z"/>
        <path class="SCHS-logo-b" d="M343,378.53l-23.79-34q-2.67-3.67-4.23-6.34c-.61-1-1.17-1.93-1.66-2.85h-.18q.09,1.2.18,2.58c.06.79.11,1.68.14,2.66s.05,2,.05,2.94v35H301.75v-61.2h13L336.85,349c.91,1.34,1.76,2.61,2.53,3.81s1.45,2.28,2.06,3.26l1.84,3.22h.18c-.06-.92-.12-1.93-.18-3-.06-.91-.11-1.94-.14-3.07s-.05-2.32-.05-3.54V317.33h11.77v61.2Z"/>
        <path class="SCHS-logo-b" d="M370,378.53v-61.2H405.3V328H382.79v13.79h19.84v10.1H382.79v16h23.15v10.66Z"/>
        <path class="SCHS-logo-b" d="M483.49,373.2a16.81,16.81,0,0,1-3.12,2.21,33.74,33.74,0,0,1-4.41,2.06,32.15,32.15,0,0,1-5.52,1.57,36.27,36.27,0,0,1-20-2,28.63,28.63,0,0,1-9.83-7,29.27,29.27,0,0,1-5.92-10.15,36.51,36.51,0,0,1-2-12,35.31,35.31,0,0,1,2-11.94,28.7,28.7,0,0,1,15.94-17,33.61,33.61,0,0,1,13.65-2.62,38.78,38.78,0,0,1,10.43,1.24,28.23,28.23,0,0,1,7.95,3.63l-5.79,9.47A22,22,0,0,0,464.11,327a17.26,17.26,0,0,0-7.63,1.61A15.6,15.6,0,0,0,451,333a20.22,20.22,0,0,0-3.35,6.52,26.76,26.76,0,0,0-1.15,8,29.78,29.78,0,0,0,1.11,8.27,20,20,0,0,0,3.3,6.76,16,16,0,0,0,5.56,4.59,17.11,17.11,0,0,0,7.86,1.7,20.58,20.58,0,0,0,8.22-1.42,26.46,26.46,0,0,0,5.65-3.27Z"/>
        <path class="SCHS-logo-b" d="M551.67,347.66a36.13,36.13,0,0,1-2,12,30.36,30.36,0,0,1-5.93,10.2A28.79,28.79,0,0,1,534,377a32.25,32.25,0,0,1-13.55,2.66A33.56,33.56,0,0,1,506.79,377a29.37,29.37,0,0,1-16.13-17,34.06,34.06,0,0,1-2.11-12,35.11,35.11,0,0,1,2.06-12,30.2,30.2,0,0,1,6.07-10.15,29,29,0,0,1,9.88-7,36.58,36.58,0,0,1,27.19,0,29.76,29.76,0,0,1,9.88,6.94,28.72,28.72,0,0,1,6,10A35.15,35.15,0,0,1,551.67,347.66ZM538,348a32.57,32.57,0,0,0-1-8.13,19.47,19.47,0,0,0-3.17-6.8,16.11,16.11,0,0,0-5.47-4.64,16.75,16.75,0,0,0-7.9-1.74,18.09,18.09,0,0,0-8,1.65,15.66,15.66,0,0,0-5.65,4.55,19.69,19.69,0,0,0-3.36,6.71,29,29,0,0,0-1.1,8,31.07,31.07,0,0,0,1.06,8.22,19.85,19.85,0,0,0,3.26,6.85,16.1,16.1,0,0,0,5.56,4.68,16.88,16.88,0,0,0,7.94,1.75,17.42,17.42,0,0,0,8-1.7,15.88,15.88,0,0,0,5.56-4.6,19.46,19.46,0,0,0,3.26-6.7A30.16,30.16,0,0,0,538,348Z"/>
        <path class="SCHS-logo-b" d="M596.42,378.53l-11.21-17.46c-1.23-1.77-2.22-3.17-3-4.18a15.09,15.09,0,0,0-2.06-2.3,5.14,5.14,0,0,0-1.7-1,6.93,6.93,0,0,0-1.89-.23h-.82v25.18h-13v-61.2h20.4q10.84,0,16.72,4.51T605.79,335a17.12,17.12,0,0,1-1.19,6.62,15.65,15.65,0,0,1-3.17,4.88,15.49,15.49,0,0,1-4.55,3.22,24.09,24.09,0,0,1-5.33,1.74v.18a18.58,18.58,0,0,1,3,2.9,55.27,55.27,0,0,1,4.17,5.83l11.95,18.18Zm-3.58-42.77q0-4.25-2.52-6.38c-1.67-1.41-4.37-2.12-8.08-2.12h-6.49v17h7q5.21,0,7.62-2.22A8.07,8.07,0,0,0,592.84,335.76Z"/>
        <path class="SCHS-logo-b" d="M646.31,355.47v23.06H633.36V355.47l-20.31-38.14h14.42l13,26h.09l12.87-26H666Z"/>
    </g>
    <g>
        <g>
            <path class="SCHS-logo-b" d="M392.49,55.3a79.9,79.9,0,0,1-7,13.71c10.39,18.76,27,37.85,52.35,49.91a320.2,320.2,0,0,1,45.14,26c15.16-6,27.94-14.17,36-26a59.64,59.64,0,0,0,5.72-10.68C506.45,94,485.3,81.45,461.35,69.94,442.93,61,433.87,46.68,428.14,32A101,101,0,0,1,422,0H398.9c0,3.64,0,7.27,0,10.93C398.92,24.91,398.54,39.77,392.49,55.3Z"/>
            <path class="SCHS-logo-b" d="M598.63,248.51c.16-38.71-12.9-74.75-36.91-104.6-2.32-2.9-4.81-5.69-7.31-8.47a97.26,97.26,0,0,1-23.2,26.5,121.37,121.37,0,0,1-16.33,10.81c1.49,1.68,3,3.35,4.36,5.05,17,21.49,24.9,43.63,25,70.71,0,7.16.21,24,.3,31.49h54.34C598.84,272.89,598.63,255.2,598.63,248.51Z"/>
        </g>
        <g>
            <path class="SCHS-logo-c" d="M554.41,135.44a223.68,223.68,0,0,0-29.67-27.26A59.64,59.64,0,0,1,519,118.86c-8.09,11.85-20.87,20-36,26a177.79,177.79,0,0,1,31.89,27.87,121.37,121.37,0,0,0,16.33-10.81A97.26,97.26,0,0,0,554.41,135.44Z"/>
            <path class="SCHS-logo-c" d="M385.5,69a79.9,79.9,0,0,0,7-13.71c6.05-15.53,6.43-30.39,6.45-44.37,0-3.66,0-7.29,0-10.93h-31c0,2.16,0,4.25,0,6.3a153,153,0,0,0,9.45,44.91A130.06,130.06,0,0,0,385.5,69Z"/>
        </g>
        <path class="SCHS-logo-d" d="M367.63,0c0,1.71.11,3.9.24,6.3,0-2,0-4.14,0-6.3Z"/>
        <path class="SCHS-logo-d" d="M218.75,0h-.24V0c0,2,.07,4.69.26,7.92,0-2.16,0-4.36,0-6.64Z"/>
        <g>
            <path class="SCHS-logo-a" d="M206.71,101.38c13.38-10.06,23-20.4,29.71-31a125.11,125.11,0,0,1-8.21-17.76A153.47,153.47,0,0,1,218.77,8c0,1.47,0,2.94,0,4.36,0,13.39-.62,23.67-4.31,33S203.89,64.52,188,76.61c-4.53,3.41-8.84,6.85-13,10.29a180.84,180.84,0,0,0,19,24.61C198.05,108.12,202.27,104.74,206.71,101.38Z"/>
            <path class="SCHS-logo-a" d="M483,144.88c-3.31,1.3-6.69,2.54-10.21,3.64-16.69,5.29-34.24,8-49.5,11.6A164.69,164.69,0,0,1,440.71,196c6.24-1.3,13.34-2.72,20.88-4.41,16.55-3.82,35.49-9,53.29-18.86A177.79,177.79,0,0,0,483,144.88Z"/>
            <path class="SCHS-logo-a" d="M554.41,135.44c1.51-2.54,3-5.16,4.25-7.92,6.68-14.11,10.35-30.8,10.44-49.88V76.46c0-10.51,0-19.77,0-27.89,0-27.81,0-42.3.08-48.57H530.35c0,6.49-.08,21.09-.08,48.57,0,8.12,0,17.36,0,27.85v.41c0,13.17-2.16,23.2-5.54,31.35A223.68,223.68,0,0,1,554.41,135.44Z"/>
            <path class="SCHS-logo-a" d="M343.67,210.94a132.07,132.07,0,0,0-16.36,28.55A108.88,108.88,0,0,1,336.05,280h21c.68-14.36,6.54-31.13,17.58-45.65a97.35,97.35,0,0,1,16-16.55,111.07,111.07,0,0,0-17.88-35.1A135,135,0,0,0,343.67,210.94Z"/>
            <path class="SCHS-logo-a" d="M249.83,12.31c0,14-.39,28.83-6.45,44.36a80.74,80.74,0,0,1-7,13.66,117.5,117.5,0,0,0,51.67,49,361,361,0,0,1,42.65-39.16c-6-3.24-12.11-6.43-18.49-9.49-18.43-9-27.49-22.62-33.21-37.3A99.94,99.94,0,0,1,272.85,0V0H249.8c0,.43,0,.87,0,1.31C249.79,5,249.83,8.63,249.83,12.31Z"/>
            <path class="SCHS-logo-a" d="M390.6,217.8a114.37,114.37,0,0,1,4.58,32.08c0,6.75.19,22.08.28,30.12h54.36c-.11-7.82-.3-23.84-.3-30.12A163.44,163.44,0,0,0,440.71,196c-5.75,1.2-10.76,2.29-14.6,3.39A98.13,98.13,0,0,0,390.6,217.8Z"/>
            <path class="SCHS-logo-a" d="M359.2,97.33c-1.13.89-2.2,1.79-3.39,2.69a348,348,0,0,0-39.31,34.52c23.35,14,41.2,29,53.64,44.63.92,1.17,1.71,2.35,2.58,3.53a136.86,136.86,0,0,1,42.86-20.64c2.48-.69,5.07-1.32,7.7-1.94a171,171,0,0,0-10.67-14.84C398.29,127.37,380.33,111.54,359.2,97.33Z"/>
            <path class="SCHS-logo-a" d="M322.07,228.72c-8.48-15.23-21.73-31.33-42-48.15a226,226,0,0,0-11.49,20.79c16.43,14.19,26.71,27.18,33.12,38.69a84.27,84.27,0,0,1,11,39.95h5.43a115.06,115.06,0,0,1,9.14-40.51A108.2,108.2,0,0,0,322.07,228.72Z"/>
            <path class="SCHS-logo-a" d="M168.79,76.33C156,51.83,154.23,31,154.2,13.1c0-4.57.12-8.9.22-13.1H131.13c-.1,4-.22,8.33-.22,13.1,0,19.53,2.19,45.37,17.27,74a167.35,167.35,0,0,0,9,15.22Q165.59,94.59,175,86.9C172.67,83.3,170.6,79.77,168.79,76.33Z"/>
            <path class="SCHS-logo-a" d="M252.39,160.07c-25.66-17-44.51-33.29-58.43-48.56-6.19,5.12-12,10.26-17.47,15.4,15.46,17,35.95,34.61,63,52.57,1.37.92,2.69,1.82,4,2.74q5.16-10,11.62-20.26C254.24,161.34,253.34,160.71,252.39,160.07Z"/>
            <path class="SCHS-logo-a" d="M288.74,119.65c-.23-.11-.43-.23-.65-.33A296.76,296.76,0,0,0,255.17,162c9.31,6.3,17.58,12.5,24.94,18.61a269.2,269.2,0,0,1,36.39-46C308,129.43,298.76,124.45,288.74,119.65Z"/>
            <path class="SCHS-logo-a" d="M217.66,280h31.08c.45-19.91,4.82-47.59,19.88-78.64a277.27,277.27,0,0,0-25.07-19.14C224,220.05,218,254.77,217.66,280Z"/>
            <path class="SCHS-logo-a" d="M385.5,69a130.06,130.06,0,0,1-8.18-17.8A153,153,0,0,1,367.87,6.3c0,1.57,0,3.12,0,4.63,0,13.4-.62,23.68-4.31,33.06S353,63.15,337.1,75.24c-2.17,1.64-4.26,3.28-6.36,4.92q15.08,8.18,28.46,17.17C370.79,88.13,379.41,78.7,385.5,69Z"/>
            <path class="SCHS-logo-a" d="M122.25,99.66c-7.29-27.26-8.64-54-8.63-77.81,0-7.61.14-14.87.24-21.85H67.27c-.09,6.66-.22,14-.23,21.85,0,25.5,1.36,56.63,10.2,89.81a242.83,242.83,0,0,0,24.3,59.09,288.74,288.74,0,0,1,30.66-42.47A205.41,205.41,0,0,1,122.25,99.66Z"/>
            <path class="SCHS-logo-a" d="M132.14,212.76a114.68,114.68,0,0,1,25.29,47.07A113.47,113.47,0,0,1,161,280H207.7a155.2,155.2,0,0,0-5.3-32.3,161.16,161.16,0,0,0-35.68-66.14,204.44,204.44,0,0,1-18.56-23.92,242.74,242.74,0,0,0-27.1,42C124.54,204,128.21,208.42,132.14,212.76Z"/>
            <path class="SCHS-logo-a" d="M68.57,280H99.66c.64-20.48,5.45-48.78,21.4-80.39a241.82,241.82,0,0,1-19.52-28.86C76.77,212.82,69.13,252,68.57,280Z"/>
            <path class="SCHS-logo-a" d="M132.2,128.28a190,190,0,0,0,16,29.36,298.84,298.84,0,0,1,28.33-30.73,205.76,205.76,0,0,1-19.26-24.55A336.54,336.54,0,0,0,132.2,128.28Z"/>
        </g>
        <g>
            <path class="SCHS-logo-e" d="M415.58,162.06a136.86,136.86,0,0,0-42.86,20.64,111.07,111.07,0,0,1,17.88,35.1,98.13,98.13,0,0,1,35.51-18.39c3.84-1.1,8.85-2.19,14.6-3.39a164.69,164.69,0,0,0-17.43-35.9C420.65,160.74,418.06,161.37,415.58,162.06Z"/>
            <path class="SCHS-logo-e" d="M318.17,280h17.88a108.88,108.88,0,0,0-8.74-40.51A115.06,115.06,0,0,0,318.17,280Z"/>
            <path class="SCHS-logo-e" d="M288.09,119.32c.22.1.42.22.65.33,10,4.8,19.23,9.78,27.76,14.89A348,348,0,0,1,355.81,100c1.19-.9,2.26-1.8,3.39-2.69q-13.38-9-28.46-17.17A361,361,0,0,0,288.09,119.32Z"/>
            <path class="SCHS-logo-e" d="M255.17,162q-6.48,10.24-11.62,20.26a277.27,277.27,0,0,1,25.07,19.14,226,226,0,0,1,11.49-20.79C272.75,174.46,264.48,168.26,255.17,162Z"/>
            <path class="SCHS-logo-e" d="M236.42,70.33a80.74,80.74,0,0,0,7-13.66c6.06-15.53,6.43-30.39,6.45-44.36,0-3.68,0-7.34,0-11,0-.44,0-.88,0-1.31H218.75V1.31c0,2.28,0,4.48,0,6.64a153.47,153.47,0,0,0,9.44,44.62A125.11,125.11,0,0,0,236.42,70.33Z"/>
            <path class="SCHS-logo-e" d="M175,86.9q-9.36,7.68-17.72,15.46a205.76,205.76,0,0,0,19.26,24.55c5.43-5.14,11.28-10.28,17.47-15.4A180.84,180.84,0,0,1,175,86.9Z"/>
            <path class="SCHS-logo-e" d="M101.54,170.75a241.82,241.82,0,0,0,19.52,28.86,242.74,242.74,0,0,1,27.1-42,190,190,0,0,1-16-29.36A288.74,288.74,0,0,0,101.54,170.75Z"/>
        </g>
    </g>
</svg>
